<?xml version="1.0" encoding="utf-8"?>
<!-- Generator: Adobe Illustrator 25.2.1, SVG Export Plug-In . SVG Version: 6.00 Build 0)  -->
<svg version="1.1" id="visual" xmlns="http://www.w3.org/2000/svg" xmlns:xlink="http://www.w3.org/1999/xlink" x="0px" y="0px"
	 viewBox="0 0 342.3 170" style="enable-background:new 0 0 342.3 170;" xml:space="preserve">
<style type="text/css">
	.st0{fill:#FA7268;}
	.st1{fill:#EF5F67;}
	.st2{fill:#E34C67;}
	.st3{fill:#D63867;}
	.st4{fill:#BE185D;}
</style>
<path class="st0" d="M-35,20l25.5-6.4C16,7.4,67-5.3,118,8s102,52.8,153,67.7c51,15.1,102,5.8,153-7s102-29.2,127.5-37.5L577,23
	v144.8h-25.5c-25.5,0-76.5,0-127.5,0s-102,0-153,0s-102,0-153,0s-102,0-127.5,0H-35V20z"/>
<path class="st1" d="M0,86.6l22.3,6.9c22.3,6.8,66.8,20.6,111.3,9.8s89.1-46.1,133.6-51.8c44.5-5.8,89.1,18.2,133.6,19.7
	c44.5,1.6,89.1-18.9,111.3-29.3l22.3-10.2V170h-22.3c-22.3,0-66.8,0-111.3,0s-89.1,0-133.6,0s-89.1,0-133.6,0s-89.1,0-111.3,0H0
	V86.6z"/>
<path class="st2" d="M-72,98l22.5-7.5C-27,82.8,18.1,67.7,63.1,60.3s90.1-6.8,135.1,1.9s90.1,26.2,135.1,19.2
	c45-6.8,90.1-37.9,112.6-53.1L468.3,13v154.9h-22.5c-22.5,0-67.5,0-112.6,0s-90.1,0-135.1,0s-90.1,0-135.1,0s-90.1,0-112.6,0H-72V98
	z"/>
<path class="st3" d="M-88.7,72.3l23.6-0.9c23.6-0.9,70.7-2.6,117.8,5.1S147,101.1,194.2,99c47.1-2.1,94.3-23.3,141.4-28.2
	c47.1-4.8,94.3,6.6,117.8,12.4l23.6,5.7V170h-23.6c-23.6,0-70.7,0-117.8,0s-94.3,0-141.4,0s-94.3,0-141.4,0s-94.3,0-117.8,0h-23.6
	V72.3z"/>
<path class="st4" d="M-194.8,147.4l24.7-8.4c24.7-8.3,74-25.1,123.3-32.9c49.3-7.9,98.6-6.6,148,1.5c49.3,8.2,98.6,23.4,148,25.6
	c49.3,2.2,98.6-8.8,123.3-14.1l24.7-5.5v56.1h-24.7c-24.7,0-74,0-123.3,0s-98.6,0-148,0s-98.6,0-148,0s-98.6,0-123.3,0h-24.7V147.4z
	"/>
</svg>
