<?xml version="1.0" encoding="utf-8"?>
<!-- Generator: Adobe Illustrator 25.2.1, SVG Export Plug-In . SVG Version: 6.00 Build 0)  -->
<svg version="1.1" id="visual" xmlns="http://www.w3.org/2000/svg" xmlns:xlink="http://www.w3.org/1999/xlink" x="0px" y="0px"
	 viewBox="0 0 900 170" style="enable-background:new 0 0 900 170;" xml:space="preserve">
<style type="text/css">
	.st0{fill:#FA7268;}
	.st1{fill:#EF5F67;}
	.st2{fill:#E34C67;}
	.st3{fill:#D63867;}
	.st4{fill:#BE185D;}
</style>
<path class="st0" d="M0,22.2l37.5-6.4C75,9.6,150-3.1,225,10.2S375,63,450,77.9c75,15.1,150,5.8,225-7s150-29.2,187.5-37.5l37.5-8.2
	V170h-37.5c-37.5,0-112.5,0-187.5,0s-150,0-225,0s-150,0-225,0s-150,0-187.5,0H0V22.2z"/>
<path class="st1" d="M0,82.8L37.5,90C75,97.1,150,111.5,225,100.2S375,52,450,46c75-6.1,150,19,225,20.6c75,1.7,150-19.8,187.5-30.6
	L900,25.3V170h-37.5c-37.5,0-112.5,0-187.5,0s-150,0-225,0s-150,0-225,0s-150,0-187.5,0H0V82.8z"/>
<path class="st2" d="M0,122.8l37.5-5.1C75,112.5,150,102.3,225,97.3s150-4.6,225,1.3s150,17.7,225,13C750,107,825,86,862.5,75.7
	L900,65.3V170h-37.5c-37.5,0-112.5,0-187.5,0s-150,0-225,0s-150,0-225,0s-150,0-187.5,0H0V122.8z"/>
<path class="st3" d="M0,91l37.5-0.7C75,89.6,150,88.2,225,94.4s150,19.9,225,18.2s150-18.8,225-22.8c75-3.9,150,5.3,187.5,10
	l37.5,4.6V170h-37.5c-37.5,0-112.5,0-187.5,0s-150,0-225,0s-150,0-225,0s-150,0-187.5,0H0V91z"/>
<path class="st4" d="M0,150.5l37.5-7.4c37.5-7.3,112.5-22,187.5-28.8c75-6.9,150-5.8,225,1.3c75,7.2,150,20.5,225,22.4
	s150-7.7,187.5-12.4l37.5-4.8V170h-37.5c-37.5,0-112.5,0-187.5,0s-150,0-225,0s-150,0-225,0s-150,0-187.5,0H0V150.5z"/>
</svg>
